<?xml version="1.0" encoding="UTF-8"?>
<svg viewBox="0 0 385 70" xmlns="http://www.w3.org/2000/svg">
    <g transform="translate(-368.5 -739.29)">
        <path
            fill="white"
            d="m385.82 743.06-13.469 60.781h17.906l8.25-32.906 0.625 32.906h12.625l16.375-32.906-7.2188 32.906h17.156l13.531-60.781h-24.094l-16.094 33.656-1.25-33.656h-24.344zm69.188 0-2.0938 9.2188h16.094l1.8125-9.2188h-15.812zm250.56 0.96875c-3.772 0.10375-8.0462 0.61621-10.094 2.2812-5.2751 4.1601-6.25 12.417-6.25 12.562h-6.5l-2.375 9.2812c-2.7272-6.0445-8.6036-10.564-18.094-11.156-32.191-1.945-42.959 46.201-10.969 47.656 23.493 1.1021 35.112-21.093 29.438-35.594h6.5l-8.3125 34.719h16.344l7.7812-34.719h6.0312l-5.4062 24.656c-0.41501 2.635 0.15497 4.97 1.75 7.125 2.5 3.2551 5.5312 2.9375 6.7812 2.9375h11.812l2.6875-11.531s-5.475 0.76127-6.375-0.34375c-0.76002-0.97002-0.20501-2.2912 0-3.4062l4.375-19h5.6875l2.5-10.344h-5.625l2.2812-10.688h-15.75l-2.5 10.688h-6.3125s0.69374-4.4487 1.5938-5.3438c1.18-1.18 4.25-1.1875 4.25-1.1875l1.7812-8.375s-3.2593-0.32251-7.0312-0.21875zm-138 12.938c-11.051 0.0321-19.431 5.8852-24.281 13.5l2.8125-12.562c-7.9102 0.07-12.271 3.4062-14.281 5.9062l1.25-5.1562-15.75 0.625-10.406 44.562h16.844l3.5312-17.781c1.2837-6.477 3.7117-12.264 14.562-13.094-6.8424 13.329-3.4924 30.418 14.156 32.188 20.955 2.01 27.469-14.906 27.469-14.906s-3.1067 14.97 21.594 15.25c23.1 0.28 25.374-15.052 25.094-18.312-0.90001-11.585-10.874-11.872-20.094-13.812-7.4951-1.595-5.5439-7.2975 0.28125-7.4375 7.3602-0.13501 5.4062 5.9062 5.4062 5.9062h15.75c-0.345-0.90502 4.3854-14.844-19-14.844-10.755 0-21.579 3.5273-22.969 12.688-1.945 12.765 13.241 15.186 17.406 16.156 8.6052 1.875 7.3552 8.7512 0 9.0312-9.1602 0.28-6.5312-7.0625-6.5312-7.0625h-27.75s14.216-4.7888 14.281-4.7188c2.705-8.4602 1.1354-25.329-17.875-26.094-0.49876-0.0216-1.0116-0.0327-1.5-0.0312zm-73.875 0.40625c-33.604-0.15672-39.154 47.792-10.469 48.062 22.69 0.21 25.531-18.032 25.531-18.312h-14.688c-0.41501 0.69501-2.7712 6.3125-7.9062 6.3125-10.335 0-2.9239-24.788 6.0312-25.062 5.4101-0.21001 4.5625 6.9362 4.5625 7.2812h14.781c0-0.41501 0.57157-17.35-16.219-18.25-0.54751-0.0271-1.0916-0.0289-1.625-0.0312zm-42.312 1.0938-10.125 45.438h16.656l9.7188-45.438h-16.25zm291.97 0c-8.3952 0-8.3952 12.469 0 12.469s8.4002-12.469 0-12.469zm0 1.0938c7.0801 0 7.0801 10.219 0 10.219-7.0051 0-7.0051-10.219 0-10.219zm-1.5938 1.875-1.0312 6.6562h1.25l0.40625-2.6875h0.84375l1.0312 2.5h1.4688l-1.25-2.5c0.135 0 1.67 3e-5 1.875-1.875 0.14-1.665-1.5312-2.0938-1.5312-2.0938h-3.0625zm1.1875 0.90625h1.25s1.0312 0.01 1.0312 1.125c-0.135 1.245-1.375 1.0312-1.375 1.0312h-1.25l0.34375-2.1562zm-83.312 5.125c0.54511-0.0308 1.1012 0.0412 1.6562 0.21875 8.8802 2.78 1.0139 28.916-8.2812 25.656-8.1939-2.9251-1.5516-25.414 6.625-25.875zm-93.125 0.0937c0.54712-0.037 1.1097 0.0228 1.6562 0.1875 8.8152 2.775 0.83144 28.789-8.4688 25.594-9.108-3.3188-1.3943-25.226 6.8125-25.781z" />
    </g>
</svg>